<mxfile host="app.diagrams.net" modified="2024-03-02T05:59:18.962Z" agent="Mozilla/5.0 (Windows NT 10.0; Win64; x64) AppleWebKit/537.36 (KHTML, like Gecko) Chrome/122.0.0.0 Safari/537.36" etag="ohMrCBciFDAND-9aTTBq" version="24.0.0" type="device">
  <diagram id="R2lEEEUBdFMjLlhIrx00" name="Page-1">
    <mxGraphModel dx="1485" dy="789" grid="1" gridSize="10" guides="1" tooltips="1" connect="1" arrows="1" fold="1" page="1" pageScale="1" pageWidth="1200" pageHeight="1920" math="0" shadow="0" extFonts="Permanent Marker^https://fonts.googleapis.com/css?family=Permanent+Marker">
      <root>
        <mxCell id="0" />
        <mxCell id="1" parent="0" />
        <mxCell id="UQB-D1hp-aY6Sn5aEktv-2" value="Department Managed" style="ellipse;whiteSpace=wrap;html=1;" vertex="1" parent="1">
          <mxGeometry x="20" y="40" width="120" height="80" as="geometry" />
        </mxCell>
        <mxCell id="UQB-D1hp-aY6Sn5aEktv-3" value="Name" style="ellipse;whiteSpace=wrap;html=1;" vertex="1" parent="1">
          <mxGeometry x="180" y="40" width="120" height="80" as="geometry" />
        </mxCell>
        <mxCell id="UQB-D1hp-aY6Sn5aEktv-5" value="&lt;font style=&quot;font-size: 12px;&quot;&gt;Salary&lt;/font&gt;" style="ellipse;whiteSpace=wrap;html=1;" vertex="1" parent="1">
          <mxGeometry x="10" y="160" width="120" height="80" as="geometry" />
        </mxCell>
        <mxCell id="UQB-D1hp-aY6Sn5aEktv-6" value="&lt;font style=&quot;font-size: 24px;&quot;&gt;Doctors&lt;/font&gt;" style="rounded=0;whiteSpace=wrap;html=1;" vertex="1" parent="1">
          <mxGeometry x="160" y="160" width="250" height="80" as="geometry" />
        </mxCell>
        <mxCell id="UQB-D1hp-aY6Sn5aEktv-7" value="Diagnoses &amp;amp; Treats&amp;nbsp;" style="rhombus;whiteSpace=wrap;html=1;" vertex="1" parent="1">
          <mxGeometry x="210" y="290" width="120" height="140" as="geometry" />
        </mxCell>
        <mxCell id="UQB-D1hp-aY6Sn5aEktv-8" value="&lt;font style=&quot;font-size: 24px;&quot;&gt;Patients&lt;/font&gt;" style="rounded=0;whiteSpace=wrap;html=1;" vertex="1" parent="1">
          <mxGeometry x="160" y="480" width="250" height="80" as="geometry" />
        </mxCell>
        <mxCell id="UQB-D1hp-aY6Sn5aEktv-9" value="Date of Admission" style="ellipse;whiteSpace=wrap;html=1;" vertex="1" parent="1">
          <mxGeometry x="20" y="610" width="120" height="80" as="geometry" />
        </mxCell>
        <mxCell id="UQB-D1hp-aY6Sn5aEktv-10" value="Name" style="ellipse;whiteSpace=wrap;html=1;" vertex="1" parent="1">
          <mxGeometry x="180" y="610" width="120" height="80" as="geometry" />
        </mxCell>
        <mxCell id="UQB-D1hp-aY6Sn5aEktv-11" value="Type of Disease" style="ellipse;whiteSpace=wrap;html=1;" vertex="1" parent="1">
          <mxGeometry x="330" y="610" width="120" height="80" as="geometry" />
        </mxCell>
        <mxCell id="UQB-D1hp-aY6Sn5aEktv-14" value="" style="endArrow=none;html=1;rounded=0;entryX=0.5;entryY=0;entryDx=0;entryDy=0;exitX=0.433;exitY=1.021;exitDx=0;exitDy=0;exitPerimeter=0;" edge="1" parent="1" source="UQB-D1hp-aY6Sn5aEktv-6" target="UQB-D1hp-aY6Sn5aEktv-7">
          <mxGeometry width="50" height="50" relative="1" as="geometry">
            <mxPoint x="400" y="460" as="sourcePoint" />
            <mxPoint x="450" y="410" as="targetPoint" />
          </mxGeometry>
        </mxCell>
        <mxCell id="UQB-D1hp-aY6Sn5aEktv-18" value="" style="endArrow=none;html=1;rounded=0;entryX=1;entryY=0.5;entryDx=0;entryDy=0;" edge="1" parent="1" source="UQB-D1hp-aY6Sn5aEktv-6" target="UQB-D1hp-aY6Sn5aEktv-5">
          <mxGeometry width="50" height="50" relative="1" as="geometry">
            <mxPoint x="400" y="460" as="sourcePoint" />
            <mxPoint x="450" y="410" as="targetPoint" />
          </mxGeometry>
        </mxCell>
        <mxCell id="UQB-D1hp-aY6Sn5aEktv-19" value="" style="endArrow=none;html=1;rounded=0;exitX=0.714;exitY=0.063;exitDx=0;exitDy=0;exitPerimeter=0;" edge="1" parent="1" source="UQB-D1hp-aY6Sn5aEktv-9" target="UQB-D1hp-aY6Sn5aEktv-8">
          <mxGeometry width="50" height="50" relative="1" as="geometry">
            <mxPoint x="400" y="460" as="sourcePoint" />
            <mxPoint x="450" y="410" as="targetPoint" />
          </mxGeometry>
        </mxCell>
        <mxCell id="UQB-D1hp-aY6Sn5aEktv-20" value="" style="endArrow=none;html=1;rounded=0;exitX=0.444;exitY=1.004;exitDx=0;exitDy=0;exitPerimeter=0;entryX=0.658;entryY=0.013;entryDx=0;entryDy=0;entryPerimeter=0;" edge="1" parent="1" source="UQB-D1hp-aY6Sn5aEktv-8" target="UQB-D1hp-aY6Sn5aEktv-10">
          <mxGeometry width="50" height="50" relative="1" as="geometry">
            <mxPoint x="400" y="460" as="sourcePoint" />
            <mxPoint x="450" y="410" as="targetPoint" />
          </mxGeometry>
        </mxCell>
        <mxCell id="UQB-D1hp-aY6Sn5aEktv-21" value="" style="endArrow=none;html=1;rounded=0;exitX=0.75;exitY=1;exitDx=0;exitDy=0;entryX=0.5;entryY=0;entryDx=0;entryDy=0;" edge="1" parent="1" source="UQB-D1hp-aY6Sn5aEktv-8" target="UQB-D1hp-aY6Sn5aEktv-11">
          <mxGeometry width="50" height="50" relative="1" as="geometry">
            <mxPoint x="400" y="460" as="sourcePoint" />
            <mxPoint x="450" y="410" as="targetPoint" />
          </mxGeometry>
        </mxCell>
        <mxCell id="UQB-D1hp-aY6Sn5aEktv-22" value="" style="endArrow=none;html=1;rounded=0;exitX=1;exitY=1;exitDx=0;exitDy=0;entryX=0.2;entryY=0;entryDx=0;entryDy=0;entryPerimeter=0;" edge="1" parent="1" source="UQB-D1hp-aY6Sn5aEktv-2" target="UQB-D1hp-aY6Sn5aEktv-6">
          <mxGeometry width="50" height="50" relative="1" as="geometry">
            <mxPoint x="400" y="460" as="sourcePoint" />
            <mxPoint x="450" y="410" as="targetPoint" />
          </mxGeometry>
        </mxCell>
        <mxCell id="UQB-D1hp-aY6Sn5aEktv-23" value="" style="endArrow=none;html=1;rounded=0;entryX=0.5;entryY=1;entryDx=0;entryDy=0;" edge="1" parent="1" source="UQB-D1hp-aY6Sn5aEktv-6">
          <mxGeometry width="50" height="50" relative="1" as="geometry">
            <mxPoint x="400" y="460" as="sourcePoint" />
            <mxPoint x="390" y="120" as="targetPoint" />
          </mxGeometry>
        </mxCell>
        <mxCell id="UQB-D1hp-aY6Sn5aEktv-24" value="" style="endArrow=none;html=1;rounded=0;entryX=0.5;entryY=1;entryDx=0;entryDy=0;exitX=0.321;exitY=0.021;exitDx=0;exitDy=0;exitPerimeter=0;" edge="1" parent="1" source="UQB-D1hp-aY6Sn5aEktv-6" target="UQB-D1hp-aY6Sn5aEktv-3">
          <mxGeometry width="50" height="50" relative="1" as="geometry">
            <mxPoint x="400" y="460" as="sourcePoint" />
            <mxPoint x="450" y="410" as="targetPoint" />
          </mxGeometry>
        </mxCell>
        <mxCell id="UQB-D1hp-aY6Sn5aEktv-27" value="&lt;font style=&quot;font-size: 18px;&quot;&gt;Sells Drugs&lt;/font&gt;" style="rhombus;whiteSpace=wrap;html=1;" vertex="1" parent="1">
          <mxGeometry x="570" y="450" width="120" height="140" as="geometry" />
        </mxCell>
        <mxCell id="UQB-D1hp-aY6Sn5aEktv-28" value="" style="endArrow=none;html=1;rounded=0;entryX=0;entryY=0.5;entryDx=0;entryDy=0;" edge="1" parent="1" source="UQB-D1hp-aY6Sn5aEktv-8" target="UQB-D1hp-aY6Sn5aEktv-27">
          <mxGeometry width="50" height="50" relative="1" as="geometry">
            <mxPoint x="410" y="460" as="sourcePoint" />
            <mxPoint x="460" y="410" as="targetPoint" />
          </mxGeometry>
        </mxCell>
        <mxCell id="UQB-D1hp-aY6Sn5aEktv-29" value="" style="endArrow=none;html=1;rounded=0;exitX=1;exitY=0.5;exitDx=0;exitDy=0;entryX=0;entryY=0.5;entryDx=0;entryDy=0;" edge="1" parent="1" source="UQB-D1hp-aY6Sn5aEktv-27">
          <mxGeometry width="50" height="50" relative="1" as="geometry">
            <mxPoint x="660" y="450" as="sourcePoint" />
            <mxPoint x="800" y="520" as="targetPoint" />
          </mxGeometry>
        </mxCell>
        <mxCell id="UQB-D1hp-aY6Sn5aEktv-31" value="&lt;font style=&quot;font-size: 24px;&quot;&gt;Cashier&lt;/font&gt;" style="rounded=0;whiteSpace=wrap;html=1;" vertex="1" parent="1">
          <mxGeometry x="680" y="690" width="250" height="80" as="geometry" />
        </mxCell>
        <mxCell id="UQB-D1hp-aY6Sn5aEktv-33" value="&lt;span style=&quot;font-size: 18px;&quot;&gt;Makes payment&lt;/span&gt;" style="rhombus;whiteSpace=wrap;html=1;" vertex="1" parent="1">
          <mxGeometry x="490" y="580" width="120" height="140" as="geometry" />
        </mxCell>
        <mxCell id="UQB-D1hp-aY6Sn5aEktv-34" value="" style="endArrow=none;html=1;rounded=0;exitX=1;exitY=1;exitDx=0;exitDy=0;" edge="1" parent="1" source="UQB-D1hp-aY6Sn5aEktv-8" target="UQB-D1hp-aY6Sn5aEktv-33">
          <mxGeometry width="50" height="50" relative="1" as="geometry">
            <mxPoint x="400" y="460" as="sourcePoint" />
            <mxPoint x="450" y="410" as="targetPoint" />
          </mxGeometry>
        </mxCell>
        <mxCell id="UQB-D1hp-aY6Sn5aEktv-35" value="" style="endArrow=none;html=1;rounded=0;entryX=0;entryY=0.5;entryDx=0;entryDy=0;" edge="1" parent="1" source="UQB-D1hp-aY6Sn5aEktv-33" target="UQB-D1hp-aY6Sn5aEktv-31">
          <mxGeometry width="50" height="50" relative="1" as="geometry">
            <mxPoint x="610" y="810" as="sourcePoint" />
            <mxPoint x="660" y="760" as="targetPoint" />
          </mxGeometry>
        </mxCell>
        <mxCell id="UQB-D1hp-aY6Sn5aEktv-36" value="&lt;font style=&quot;font-size: 24px;&quot;&gt;HR Department&lt;/font&gt;" style="rounded=0;whiteSpace=wrap;html=1;" vertex="1" parent="1">
          <mxGeometry x="880" y="150" width="250" height="80" as="geometry" />
        </mxCell>
        <mxCell id="UQB-D1hp-aY6Sn5aEktv-42" value="" style="rounded=0;whiteSpace=wrap;html=1;" vertex="1" parent="1">
          <mxGeometry x="800" y="480" width="250" height="80" as="geometry" />
        </mxCell>
        <mxCell id="UQB-D1hp-aY6Sn5aEktv-43" value="&lt;font style=&quot;font-size: 24px;&quot;&gt;Pharmacist&lt;/font&gt;" style="rounded=0;whiteSpace=wrap;html=1;" vertex="1" parent="1">
          <mxGeometry x="830" y="490" width="190" height="60" as="geometry" />
        </mxCell>
        <mxCell id="UQB-D1hp-aY6Sn5aEktv-44" value="" style="endArrow=classic;html=1;rounded=0;exitX=0.5;exitY=1;exitDx=0;exitDy=0;entryX=0.433;entryY=0.004;entryDx=0;entryDy=0;entryPerimeter=0;" edge="1" parent="1" source="UQB-D1hp-aY6Sn5aEktv-7" target="UQB-D1hp-aY6Sn5aEktv-8">
          <mxGeometry width="50" height="50" relative="1" as="geometry">
            <mxPoint x="400" y="450" as="sourcePoint" />
            <mxPoint x="450" y="400" as="targetPoint" />
          </mxGeometry>
        </mxCell>
        <mxCell id="UQB-D1hp-aY6Sn5aEktv-47" value="&lt;u&gt;&lt;font style=&quot;font-size: 14px;&quot;&gt;Employee ID&lt;/font&gt;&lt;/u&gt;" style="ellipse;whiteSpace=wrap;html=1;" vertex="1" parent="1">
          <mxGeometry x="500" y="50" width="140" height="90" as="geometry" />
        </mxCell>
        <mxCell id="UQB-D1hp-aY6Sn5aEktv-52" value="Manages" style="rhombus;whiteSpace=wrap;html=1;" vertex="1" parent="1">
          <mxGeometry x="640" y="120" width="120" height="140" as="geometry" />
        </mxCell>
        <mxCell id="UQB-D1hp-aY6Sn5aEktv-54" value="" style="endArrow=classic;startArrow=classic;html=1;rounded=0;entryX=0;entryY=0.5;entryDx=0;entryDy=0;exitX=1;exitY=0.5;exitDx=0;exitDy=0;" edge="1" parent="1" source="UQB-D1hp-aY6Sn5aEktv-52" target="UQB-D1hp-aY6Sn5aEktv-36">
          <mxGeometry width="50" height="50" relative="1" as="geometry">
            <mxPoint x="740" y="140" as="sourcePoint" />
            <mxPoint x="790" y="90" as="targetPoint" />
          </mxGeometry>
        </mxCell>
        <mxCell id="UQB-D1hp-aY6Sn5aEktv-56" value="" style="endArrow=classic;startArrow=classic;html=1;rounded=0;" edge="1" parent="1" target="UQB-D1hp-aY6Sn5aEktv-52">
          <mxGeometry width="50" height="50" relative="1" as="geometry">
            <mxPoint x="410" y="190" as="sourcePoint" />
            <mxPoint x="460" y="140" as="targetPoint" />
          </mxGeometry>
        </mxCell>
        <mxCell id="UQB-D1hp-aY6Sn5aEktv-59" value="&lt;font style=&quot;font-size: 24px;&quot;&gt;Room&lt;/font&gt;" style="rounded=0;whiteSpace=wrap;html=1;" vertex="1" parent="1">
          <mxGeometry x="800" y="320" width="250" height="80" as="geometry" />
        </mxCell>
        <mxCell id="UQB-D1hp-aY6Sn5aEktv-64" value="&lt;font style=&quot;font-size: 18px;&quot;&gt;Books&lt;/font&gt;" style="rhombus;whiteSpace=wrap;html=1;" vertex="1" parent="1">
          <mxGeometry x="570" y="290" width="120" height="140" as="geometry" />
        </mxCell>
        <mxCell id="UQB-D1hp-aY6Sn5aEktv-65" value="" style="endArrow=none;html=1;rounded=0;exitX=1;exitY=0;exitDx=0;exitDy=0;" edge="1" parent="1" source="UQB-D1hp-aY6Sn5aEktv-6">
          <mxGeometry width="50" height="50" relative="1" as="geometry">
            <mxPoint x="450" y="150" as="sourcePoint" />
            <mxPoint x="500" y="100" as="targetPoint" />
          </mxGeometry>
        </mxCell>
        <mxCell id="UQB-D1hp-aY6Sn5aEktv-66" value="" style="endArrow=none;html=1;rounded=0;entryX=0;entryY=0.5;entryDx=0;entryDy=0;" edge="1" parent="1" target="UQB-D1hp-aY6Sn5aEktv-64">
          <mxGeometry width="50" height="50" relative="1" as="geometry">
            <mxPoint x="410" y="480" as="sourcePoint" />
            <mxPoint x="460" y="430" as="targetPoint" />
          </mxGeometry>
        </mxCell>
        <mxCell id="UQB-D1hp-aY6Sn5aEktv-67" value="" style="endArrow=none;html=1;rounded=0;entryX=0;entryY=0.5;entryDx=0;entryDy=0;" edge="1" parent="1" target="UQB-D1hp-aY6Sn5aEktv-59">
          <mxGeometry width="50" height="50" relative="1" as="geometry">
            <mxPoint x="690" y="360" as="sourcePoint" />
            <mxPoint x="740" y="310" as="targetPoint" />
          </mxGeometry>
        </mxCell>
        <mxCell id="UQB-D1hp-aY6Sn5aEktv-68" value="&lt;u&gt;&lt;font style=&quot;font-size: 18px;&quot;&gt;Room Number&lt;/font&gt;&lt;/u&gt;" style="ellipse;whiteSpace=wrap;html=1;" vertex="1" parent="1">
          <mxGeometry x="1120" y="315" width="140" height="90" as="geometry" />
        </mxCell>
        <mxCell id="UQB-D1hp-aY6Sn5aEktv-71" value="&lt;font style=&quot;font-size: 18px;&quot;&gt;Floor Number&lt;/font&gt;" style="ellipse;whiteSpace=wrap;html=1;" vertex="1" parent="1">
          <mxGeometry x="1120" y="420" width="140" height="90" as="geometry" />
        </mxCell>
        <mxCell id="UQB-D1hp-aY6Sn5aEktv-72" value="" style="endArrow=none;html=1;rounded=0;entryX=0;entryY=0.5;entryDx=0;entryDy=0;" edge="1" parent="1" target="UQB-D1hp-aY6Sn5aEktv-71">
          <mxGeometry width="50" height="50" relative="1" as="geometry">
            <mxPoint x="1050" y="380" as="sourcePoint" />
            <mxPoint x="1100" y="330" as="targetPoint" />
          </mxGeometry>
        </mxCell>
        <mxCell id="UQB-D1hp-aY6Sn5aEktv-74" value="" style="endArrow=none;html=1;rounded=0;entryX=0;entryY=0.5;entryDx=0;entryDy=0;" edge="1" parent="1" target="UQB-D1hp-aY6Sn5aEktv-68">
          <mxGeometry width="50" height="50" relative="1" as="geometry">
            <mxPoint x="1050" y="360" as="sourcePoint" />
            <mxPoint x="1110" y="360" as="targetPoint" />
          </mxGeometry>
        </mxCell>
        <mxCell id="UQB-D1hp-aY6Sn5aEktv-77" value="Admission ID" style="ellipse;whiteSpace=wrap;html=1;" vertex="1" parent="1">
          <mxGeometry x="10" y="480" width="120" height="80" as="geometry" />
        </mxCell>
        <mxCell id="UQB-D1hp-aY6Sn5aEktv-78" value="" style="endArrow=none;html=1;rounded=0;entryX=0;entryY=0.5;entryDx=0;entryDy=0;" edge="1" parent="1" target="UQB-D1hp-aY6Sn5aEktv-8">
          <mxGeometry width="50" height="50" relative="1" as="geometry">
            <mxPoint x="130" y="520" as="sourcePoint" />
            <mxPoint x="180" y="470" as="targetPoint" />
          </mxGeometry>
        </mxCell>
        <mxCell id="UQB-D1hp-aY6Sn5aEktv-79" value="Age" style="ellipse;whiteSpace=wrap;html=1;" vertex="1" parent="1">
          <mxGeometry x="10" y="380" width="120" height="80" as="geometry" />
        </mxCell>
        <mxCell id="UQB-D1hp-aY6Sn5aEktv-80" value="" style="endArrow=none;html=1;rounded=0;entryX=0.044;entryY=-0.029;entryDx=0;entryDy=0;entryPerimeter=0;exitX=1;exitY=0.5;exitDx=0;exitDy=0;" edge="1" parent="1" source="UQB-D1hp-aY6Sn5aEktv-79" target="UQB-D1hp-aY6Sn5aEktv-8">
          <mxGeometry width="50" height="50" relative="1" as="geometry">
            <mxPoint x="130" y="430" as="sourcePoint" />
            <mxPoint x="180" y="380" as="targetPoint" />
          </mxGeometry>
        </mxCell>
        <mxCell id="UQB-D1hp-aY6Sn5aEktv-81" value="" style="ellipse;whiteSpace=wrap;html=1;" vertex="1" parent="1">
          <mxGeometry x="340" y="40" width="120" height="80" as="geometry" />
        </mxCell>
        <mxCell id="UQB-D1hp-aY6Sn5aEktv-82" value="Designation" style="ellipse;whiteSpace=wrap;html=1;" vertex="1" parent="1">
          <mxGeometry x="355" y="45" width="90" height="70" as="geometry" />
        </mxCell>
      </root>
    </mxGraphModel>
  </diagram>
</mxfile>
